<svg width="319" height="197" viewBox="0 0 319 197" fill="none" xmlns="http://www.w3.org/2000/svg">
<path d="M262.966 195.37V104.064H278.6V126.578L278.225 139.711H282.478L277.85 143.338C277.933 137.834 279.684 133.457 283.103 130.205C286.522 126.953 291.066 125.327 296.736 125.327C303.491 125.327 308.869 127.578 312.871 132.081C316.957 136.584 319 142.629 319 150.217V195.37H303.365V152.093C303.365 147.841 302.281 144.589 300.113 142.337C297.945 140.002 294.944 138.835 291.108 138.835C287.189 138.835 284.104 140.002 281.852 142.337C279.684 144.672 278.6 148.007 278.6 152.343V195.37H262.966Z" fill="#EFEFEF"/>
<path d="M232.746 195.37C226.325 195.37 221.197 193.535 217.362 189.866C213.609 186.114 211.733 181.069 211.733 174.732V140.711H192.721V126.578H211.733V107.191H227.493V126.578L254.885 126.578V140.711H227.493V174.357C227.493 176.358 228.035 178.026 229.119 179.36C230.286 180.611 231.87 181.236 233.872 181.236H254.259V195.37H232.746Z" fill="#EFEFEF"/>
<path d="M132.984 195.37V126.577H148.243V139.711H152.496L147.868 143.338C147.951 137.834 149.702 133.457 153.121 130.205C156.54 126.953 161.084 125.327 166.754 125.327C173.509 125.327 178.887 127.578 182.889 132.081C186.975 136.584 189.018 142.629 189.018 150.217V195.37H173.383V152.093C173.383 147.841 172.3 144.589 170.132 142.337C167.964 140.002 164.962 138.835 161.126 138.835C157.207 138.835 154.122 140.002 151.87 142.337C149.702 144.672 148.618 148.007 148.618 152.343V195.37H132.984Z" fill="#EFEFEF"/>
<path d="M95.8849 196.495C90.048 196.495 84.9615 195.37 80.6255 193.118C76.2895 190.867 72.9542 187.698 70.6194 183.612C68.2846 179.443 67.1172 174.565 67.1172 168.978V152.969C67.1172 147.299 68.2846 142.421 70.6194 138.335C72.9542 134.249 76.2895 131.08 80.6255 128.829C84.9615 126.578 90.048 125.452 95.8849 125.452C101.805 125.452 106.892 126.578 111.144 128.829C115.48 131.08 118.816 134.249 121.15 138.335C123.485 142.421 124.652 147.299 124.652 152.969V168.978C124.652 174.565 123.485 179.443 121.15 183.612C118.816 187.698 115.48 190.867 111.144 193.118C106.892 195.37 101.805 196.495 95.8849 196.495ZM95.8849 182.862C100.054 182.862 103.264 181.736 105.516 179.485C107.851 177.15 109.018 173.815 109.018 169.479V152.468C109.018 148.049 107.851 144.714 105.516 142.462C103.264 140.211 100.054 139.085 95.8849 139.085C91.799 139.085 88.5887 140.211 86.254 142.462C83.9192 144.714 82.7518 148.049 82.7518 152.468V169.479C82.7518 173.815 83.9192 177.15 86.254 179.485C88.5887 181.736 91.799 182.862 95.8849 182.862Z" fill="#EFEFEF"/>
<path d="M0.125061 195.37L0.125061 104.064H20.5125L30.7688 143.338L41.1502 104.064L61.6627 104.064L61.6627 195.37H47.0288L47.0288 156.971C47.0288 151.718 47.1539 146.298 47.404 140.711C47.7375 135.041 48.1128 129.579 48.5297 124.326C48.9466 118.99 49.4052 114.153 49.9055 109.817L37.0227 155.72H24.1398L11.7572 110.943C12.2575 114.779 12.7161 119.115 13.133 123.951C13.6333 128.787 14.0086 133.999 14.2587 139.585C14.5923 145.172 14.759 150.967 14.759 156.971L14.759 195.37H0.125061Z" fill="#EFEFEF"/>
<path d="M132.483 91.3059V22.5138L147.743 22.5138V36.3973H151.995L147.368 40.1496C147.368 34.3127 149.077 29.7266 152.496 26.3912C155.998 22.9724 160.751 21.2631 166.754 21.2631C173.759 21.2631 179.22 23.5144 183.139 28.0172C187.059 32.52 189.018 38.8155 189.018 46.9038V53.4077H173.384V47.6542C173.384 43.4016 172.3 40.1913 170.132 38.0233C167.964 35.8553 164.878 34.7713 160.876 34.7713C156.79 34.7713 153.621 36.0221 151.37 38.5236C149.202 41.0252 148.118 44.569 148.118 49.1551V91.3059H132.483Z" fill="#EFEFEF"/>
<path d="M93.0081 92.5567C87.1712 92.5567 82.0848 91.431 77.7488 89.1796C73.4128 86.9283 70.0357 83.7597 67.6176 79.6738C65.2828 75.5046 64.1154 70.6266 64.1154 65.0399V48.7799C64.1154 43.1932 65.2828 38.3569 67.6176 34.271C70.0357 30.1018 73.4128 26.8915 77.7488 24.6401C82.0848 22.3887 87.1712 21.2631 93.0081 21.2631C98.7616 21.2631 103.765 22.3887 108.017 24.6401C112.353 26.8915 115.689 30.0601 118.023 34.1459C120.442 38.1484 121.651 42.8596 121.651 48.2796V60.7873L79.1246 60.7873V65.5402C79.1246 70.2097 80.3337 73.7535 82.7518 76.1717C85.17 78.5064 88.5887 79.6738 93.0081 79.6738C96.2601 79.6738 99.0118 79.1318 101.263 78.0478C103.598 76.8804 104.974 75.2128 105.391 73.0448H120.9C119.816 78.9651 116.731 83.718 111.645 87.3035C106.558 90.8056 100.346 92.5567 93.0081 92.5567ZM106.641 51.9068V48.1545C106.641 43.4016 105.474 39.7327 103.139 37.1478C100.888 34.5629 97.5109 33.2704 93.0081 33.2704C88.5053 33.2704 85.0449 34.6046 82.6268 37.2729C80.292 39.8578 79.1246 43.5267 79.1246 48.2796V50.6561L107.767 50.531L106.641 51.9068Z" fill="#EFEFEF"/>
<path d="M0 91.3059L0 0L30.3936 0C36.4807 0 41.7756 1.16738 46.2783 3.50214C50.8645 5.83691 54.4083 9.13059 56.9098 13.3832C59.4114 17.5524 60.6621 22.4721 60.6621 28.1422C60.6621 33.729 59.3697 38.6487 56.7848 42.9013C54.2832 47.1539 50.7811 50.4476 46.2783 52.7823C41.7756 55.1171 36.4807 56.2845 30.3936 56.2845L15.6346 56.2845L15.6346 91.3059H0ZM15.6346 42.526L30.3936 42.526C34.7296 42.526 38.1901 41.1919 40.775 38.5236C43.4433 35.8553 44.7774 32.3948 44.7774 28.1422C44.7774 23.8062 43.4433 20.3458 40.775 17.7609C38.1901 15.0926 34.7296 13.7584 30.3936 13.7584L15.6346 13.7584L15.6346 42.526Z" fill="#EFEFEF"/>
</svg>
